# File created by Blade
# Date/Time:  Tue Jan 27 19:18:41 2015
# Frame Rate: 120.000 fps
#------------------------------------------------------
:FULLY-SPECIFIED
:DEGREES
1817
root 3.758306 32.327028 1.033238 -2.804540 2.430062 0.855778
Spine 0.377893 9.914034 2.050158
Head 4.910878 -18.828914 -13.176760
LeftShoulder -5.178296 -7.181029 21.627092
LeftArm -4.375093 42.705887 -101.109236
LeftForeArm 3.428726 -0.000000 17.758683
LeftHand 10.530808 0.000000 -3.228630
LeftHandThumb1 -26.253704 0.000000 33.147579
RightShoulder -6.598092 7.635934 -40.435008
RightArm 35.348421 69.762387 65.349038
RightForeArm 4.134521 -0.000000 140.652400
RightHand 33.143532 -0.000000 -56.354200
RightHandThumb1 -24.326973 -0.000000 -32.862282
LeftUpLeg 9.062873 -1.427883 -0.701727
LeftLeg 2.554584 -0.000000 -0.000000
LeftFoot -17.581668 12.499593 -23.208380
LeftToeBase 16.873087 -0.000000 -0.000000
RightUpLeg 8.924670 -8.865241 1.246346
RightLeg 0.138202 -0.000000 -0.000000
RightFoot -13.008861 -15.043260 13.731814
RightToeBase 10.002334 -0.000000 -0.000000
1818
root 3.756470 32.326438 1.035534 -2.814760 2.416504 0.844960
Spine 0.384185 9.925241 2.032236
Head 4.906678 -18.862686 -13.179315
LeftShoulder -5.168111 -7.218368 21.643598
LeftArm -4.424485 42.700351 -101.163791
LeftForeArm 3.531244 -0.000000 17.739071
LeftHand 10.479724 0.000000 -2.971696
LeftHandThumb1 -26.253704 0.000000 33.147579
RightShoulder -6.590971 7.558938 -40.365161
RightArm 35.519206 69.770151 65.740785
RightForeArm 4.782726 -0.000000 139.370744
RightHand 33.008866 -0.000000 -55.860333
RightHandThumb1 -24.326973 -0.000000 -32.862282
LeftUpLeg 9.076659 -1.445629 -0.694599
LeftLeg 2.567048 -0.000000 -0.000000
LeftFoot -17.603088 12.454733 -23.387522
LeftToeBase 16.656267 -0.000000 -0.000000
RightUpLeg 8.935503 -8.829431 1.260168
RightLeg 0.141612 -0.000000 -0.000000
RightFoot -13.018290 -15.045794 13.768122
RightToeBase 9.967463 -0.000000 -0.000000
1819
root 3.754620 32.324608 1.038254 -2.822586 2.384685 0.840868
Spine 0.380303 9.954425 2.005680
Head 4.958709 -18.876291 -13.161693
LeftShoulder -5.148199 -7.233932 21.670554
LeftArm -4.458144 42.736933 -101.215595
LeftForeArm 3.536666 -0.000000 17.734480
LeftHand 10.468902 -0.000000 -2.954213
LeftHandThumb1 -26.253704 0.000000 33.147579
RightShoulder -6.577200 7.488880 -40.318237
RightArm 35.618488 69.789668 66.101834
RightForeArm 5.349441 -0.000000 137.979523
RightHand 32.907637 -0.000000 -55.217291
RightHandThumb1 -24.326973 -0.000000 -32.862282
LeftUpLeg 9.097674 -1.404423 -0.686589
LeftLeg 2.563102 -0.000000 -0.000000
LeftFoot -17.522441 12.474021 -23.211859
LeftToeBase 16.333227 -0.000000 -0.000000
RightUpLeg 8.945776 -8.782762 1.264155
RightLeg 0.141465 -0.000000 -0.000000
RightFoot -13.024571 -15.030876 13.785180
RightToeBase 9.881322 -0.000000 -0.000000
1820
root 3.752727 32.324048 1.039734 -2.829418 2.371475 0.829717
Spine 0.384499 9.958394 1.980100
Head 4.958558 -18.874297 -13.124835
LeftShoulder -5.140782 -7.250186 21.700179
LeftArm -4.473905 42.816155 -101.263220
LeftForeArm 3.438858 -0.000000 17.708715
LeftHand 10.637789 0.000000 -3.555290
LeftHandThumb1 -26.253704 0.000000 33.147579
RightShoulder -6.581443 7.404529 -40.254398
RightArm 35.721742 69.773429 66.434177
RightForeArm 5.694550 0.000000 136.475679
RightHand 32.990350 -0.000000 -54.198535
RightHandThumb1 -24.326973 -0.000000 -32.862282
LeftUpLeg 9.107620 -1.431005 -0.680213
LeftLeg 2.567969 -0.000000 -0.000000
LeftFoot -17.559706 12.502379 -23.238665
LeftToeBase 16.357319 -0.000000 -0.000000
RightUpLeg 8.953983 -8.783914 1.275332
RightLeg 0.139983 -0.000000 -0.000000
RightFoot -13.033780 -15.002582 13.814361
RightToeBase 10.007899 -0.000000 -0.000000
1821
root 3.751907 32.323286 1.041249 -2.832624 2.349151 0.825348
Spine 0.378869 9.955594 1.948722
Head 4.974365 -18.867062 -13.084203
LeftShoulder -5.143289 -7.269228 21.729710
LeftArm -4.516708 42.907121 -101.319788
LeftForeArm 3.439327 0.000000 17.701025
LeftHand 10.658551 -0.000000 -3.678998
LeftHandThumb1 -26.253704 0.000000 33.147579
RightShoulder -6.566677 7.341407 -40.197856
RightArm 35.631836 69.727761 66.563450
RightForeArm 5.827139 -0.000000 134.900585
RightHand 32.803902 0.000000 -53.212404
RightHandThumb1 -24.326973 -0.000000 -32.862282
LeftUpLeg 9.115119 -1.425103 -0.674162
LeftLeg 2.562280 -0.000000 -0.000000
LeftFoot -17.675890 12.554017 -23.224314
LeftToeBase 16.836472 -0.000000 -0.000000
RightUpLeg 8.949707 -8.768654 1.280943
RightLeg 0.155799 -0.000000 -0.000000
RightFoot -13.040506 -14.995302 13.816680
RightToeBase 9.924980 -0.000000 -0.000000
1822
root 3.751558 32.322527 1.042606 -2.845970 2.326272 0.816026
Spine 0.385196 9.965699 1.922718
Head 4.993913 -18.879534 -13.024022
LeftShoulder -5.131731 -7.282010 21.762583
LeftArm -4.536784 42.981225 -101.372361
LeftForeArm 3.290552 -0.000000 17.687616
LeftHand 10.761198 -0.000000 -4.773313
LeftHandThumb1 -26.253704 0.000000 33.147579
RightShoulder -6.558387 7.303902 -40.151356
RightArm 35.336892 69.649600 66.469097
RightForeArm 5.936688 -0.000000 133.228693
RightHand 32.801616 0.000000 -52.582779
RightHandThumb1 -24.326973 -0.000000 -32.862282
LeftUpLeg 9.130446 -1.421000 -0.667741
LeftLeg 2.569551 -0.000000 -0.000000
LeftFoot -17.706738 12.574587 -23.238802
LeftToeBase 16.878445 -0.000000 -0.000000
RightUpLeg 8.966698 -8.783475 1.284924
RightLeg 0.148648 -0.000000 -0.000000
RightFoot -13.021807 -14.974015 13.778509
RightToeBase 9.959860 -0.000000 -0.000000
1823
root 3.750317 32.321726 1.044005 -2.857554 2.303896 0.804276
Spine 0.388919 9.984304 1.895132
Head 5.021026 -18.897085 -12.953852
LeftShoulder -5.117642 -7.263663 21.792620
LeftArm -4.511367 43.083333 -101.387153
LeftForeArm 3.278532 -0.000000 17.675394
LeftHand 10.784891 -0.000000 -5.038642
LeftHandThumb1 -26.253704 0.000000 33.147579
RightShoulder -6.569826 7.205335 -40.097709
RightArm 35.120576 69.542073 66.400576
RightForeArm 5.939570 -0.000000 131.486172
RightHand 32.790231 -0.000000 -52.118078
RightHandThumb1 -24.326973 -0.000000 -32.862282
LeftUpLeg 9.141632 -1.415757 -0.655364
LeftLeg 2.582939 -0.000000 -0.000000
LeftFoot -17.720765 12.571424 -23.233493
LeftToeBase 16.854342 -0.000000 -0.000000
RightUpLeg 8.978707 -8.760156 1.298087
RightLeg 0.144352 -0.000000 -0.000000
RightFoot -13.020443 -14.976962 13.785457
RightToeBase 9.922971 -0.000000 -0.000000
